<svg width="512" height="512" viewBox="0 0 512 512" fill="none" xmlns="http://www.w3.org/2000/svg">
<g clip-path="url(#clip0_699_15212)">
<path fill-rule="evenodd" clip-rule="evenodd" d="M237 39.0408V461.693C237 469.397 228.655 474.208 221.988 470.346L151.918 429.764C130.306 417.247 117 394.164 117 369.19V148.892C117 123.917 130.306 100.834 151.918 88.3177L237 39.0408Z" fill="url(#paint0_linear_699_15212)"/>
<path d="M395.075 127.51L237 39V167.541L283.451 192.041L395.075 127.51Z" fill="url(#paint1_linear_699_15212)"/>
<path d="M395.075 127.51L237 39V167.541L283.451 192.041L395.075 127.51Z" fill="url(#paint2_linear_699_15212)"/>
<path fill-rule="evenodd" clip-rule="evenodd" d="M255.5 231.426C255.5 217.184 263.073 204.017 275.382 196.854L395 127.248V216.101C395 241.03 381.742 264.078 360.193 276.611L270.528 328.76C263.861 332.637 255.5 327.828 255.5 320.116L255.5 231.426Z" fill="url(#paint3_linear_699_15212)"/>
</g>
<defs>
<linearGradient id="paint0_linear_699_15212" x1="196.286" y1="183.041" x2="270.786" y2="92.5087" gradientUnits="userSpaceOnUse">
<stop stop-color="#3272ED"/>
<stop offset="1" stop-color="#AF7BD6"/>
</linearGradient>
<linearGradient id="paint1_linear_699_15212" x1="457.98" y1="131.313" x2="260.351" y2="133.014" gradientUnits="userSpaceOnUse">
<stop stop-color="#DA7ED0"/>
<stop offset="0.05" stop-color="#B77BD4"/>
<stop offset="0.11" stop-color="#9079DA"/>
<stop offset="0.18" stop-color="#6E77DF"/>
<stop offset="0.25" stop-color="#5175E3"/>
<stop offset="0.33" stop-color="#3973E7"/>
<stop offset="0.42" stop-color="#2772E9"/>
<stop offset="0.54" stop-color="#1A71EB"/>
<stop offset="0.813361" stop-color="#1371EC"/>
<stop offset="1" stop-color="#064495"/>
</linearGradient>
<linearGradient id="paint2_linear_699_15212" x1="210.18" y1="4.19164" x2="307.181" y2="175.949" gradientUnits="userSpaceOnUse">
<stop stop-color="#712575"/>
<stop offset="0.09" stop-color="#9A2884"/>
<stop offset="0.18" stop-color="#BF2C92"/>
<stop offset="0.27" stop-color="#DA2E9C"/>
<stop offset="0.34" stop-color="#EB30A2"/>
<stop offset="0.4" stop-color="#F131A5"/>
<stop offset="0.5" stop-color="#EC30A3"/>
<stop offset="0.61" stop-color="#DF2F9E"/>
<stop offset="0.72" stop-color="#C92D96"/>
<stop offset="0.83" stop-color="#AA2A8A"/>
<stop offset="0.95" stop-color="#83267C"/>
<stop offset="1" stop-color="#712575"/>
</linearGradient>
<linearGradient id="paint3_linear_699_15212" x1="308" y1="260.041" x2="307.043" y2="133.204" gradientUnits="userSpaceOnUse">
<stop stop-color="#1D5CD6"/>
<stop offset="1" stop-color="#787BE5"/>
</linearGradient>
<clipPath id="clip0_699_15212">
<rect width="512" height="512" fill="white"/>
</clipPath>
</defs>
</svg>
