<svg width="512" height="512" viewBox="0 0 512 512" fill="none" xmlns="http://www.w3.org/2000/svg">
<path d="M235.156 237.579L235.412 277.227C235.434 281.259 239.732 283.797 243.274 281.899L273.738 265.493C275.466 264.565 276.532 262.752 276.532 260.8V253.365C276.532 251.371 275.423 249.536 273.642 248.629L242.932 232.811C242.132 232.405 241.3 232.213 240.49 232.213C237.684 232.213 235.135 234.475 235.156 237.579Z" fill="url(#paint0_linear_3709_321296)"/>
<path d="M336.738 369.472C309.111 385.259 285.005 399.232 276.578 404.15C303.031 418.112 333.218 418.859 359.245 408.512C363.511 406.912 367.565 404.886 371.618 402.646C390.071 391.979 407.031 382.166 419.501 375.019C432.738 367.339 440.845 353.259 440.845 338.006V309.312C425.165 318.379 377.271 346.006 336.738 369.472Z" fill="#0078D4"/>
<path d="M209.777 69.8528C215.014 66.8661 225.137 61.0101 234.641 55.4527C241.254 51.6661 248.582 49.7781 255.921 49.7781C263.249 49.7781 270.588 51.6661 277.201 55.4527C294.588 65.5861 316.561 78.1727 338.641 90.8661C369.041 108.466 399.761 126.173 419.377 137.586C432.614 145.159 440.721 159.239 440.721 174.493V181.213C432.507 199.773 418.641 215.986 399.761 226.866H399.654V191.815C399.654 184.199 395.633 177.17 389.03 173.362C364.806 159.357 340.145 145.191 315.494 130.866C279.964 110.386 244.348 89.7994 209.777 69.8528Z" fill="#0078D4"/>
<path d="M77.5249 212.565C85.8555 199.125 97.4822 187.605 112.202 178.965H112.309V386.325L92.5755 375.019C79.3489 367.339 71.2422 353.259 71.2422 338.005V224.405C71.6689 223.445 72.2022 222.379 72.6289 221.419C74.1222 218.219 76.0422 215.445 77.5249 212.565Z" fill="#0078D4"/>
<path d="M142.421 108.266C126.197 117.632 106.89 128.768 92.4689 137.045C79.3489 144.725 71.2422 158.698 71.2422 173.952V224.405C71.6689 223.445 72.2022 222.378 72.6289 221.418C74.1222 218.218 76.0422 215.445 77.5249 212.565C85.8555 199.125 97.4822 187.605 112.202 178.965H112.309C112.629 178.752 112.949 178.538 113.269 178.325C119.136 174.912 150.378 156.885 153.365 155.178V385.418C153.365 400.65 161.44 414.698 174.624 422.325C194.304 433.717 215.05 445.674 234.762 457.045C247.882 464.725 263.989 464.725 277.205 457.045C300.042 443.818 330.965 426.005 359.765 409.365C363.829 407.125 367.776 404.885 371.616 402.645C367.562 404.885 363.509 406.912 359.242 408.512C333.216 418.858 303.029 418.112 276.576 404.149V359.533C276.576 353.482 279.979 347.948 285.327 345.115C291.92 341.622 301.823 336.251 313.578 329.472C344.576 311.573 388.586 286.186 419.562 268.298C432.746 260.672 440.842 246.602 440.842 231.37V180.672C432.629 199.232 418.762 215.445 399.882 226.325H399.776C399.456 226.538 399.029 226.752 398.709 226.965C398.282 227.178 397.856 227.498 397.205 227.818C388.682 232.832 361.269 248.512 358.709 250.005V233.162C358.709 217.909 350.624 203.829 337.397 196.224C322.549 187.669 307.562 179.04 292.565 170.325C272.842 158.912 252.896 147.498 233.162 136.085C217.002 126.709 200.949 117.45 184.992 108.245C178.41 104.448 171.072 102.549 163.744 102.549C156.384 102.549 149.024 104.458 142.421 108.266ZM227.541 399.541C221.258 395.936 212.384 390.816 205.045 386.581C198.464 382.794 194.442 375.786 194.442 368.181V203.978C194.442 187.552 212.202 177.28 226.421 185.482C240.682 193.728 255.157 202.069 269.525 210.325C282.176 217.674 294.677 224.97 306.965 232.042C313.578 235.85 317.642 242.869 317.642 250.506V261.397C317.642 269.024 313.61 276.053 307.008 279.861C302.154 282.656 296.48 285.92 290.442 289.365C273.554 299.188 254.144 310.401 243.511 316.536C238.556 319.396 235.509 324.677 235.509 330.399V394.912C235.509 398.026 232.96 400.266 230.186 400.266C229.301 400.266 228.394 400.042 227.541 399.541Z" fill="url(#paint1_linear_3709_321296)"/>
<path d="M142.421 108.267C126.197 117.632 106.89 128.768 92.4689 137.045C79.3489 144.725 71.2422 158.699 71.2422 173.952V224.405C71.6689 223.445 72.2022 222.379 72.6289 221.419C74.1222 218.219 76.0422 215.445 77.5249 212.565C85.8555 199.125 97.4822 187.605 112.202 178.965H112.309C112.629 178.752 112.949 178.539 113.269 178.325C119.136 174.912 150.378 156.885 153.365 155.179V385.419C153.365 400.651 161.44 414.699 174.624 422.325C194.304 433.717 215.05 445.675 234.762 457.045C247.882 464.725 263.989 464.725 277.205 457.045C300.042 443.819 330.965 426.005 359.765 409.365C363.829 407.125 367.776 404.885 371.616 402.645C367.562 404.885 363.509 406.912 359.242 408.512C333.216 418.859 303.029 418.112 276.576 404.149V350.805C276.576 350.805 291.936 341.952 313.578 329.472C344.576 311.573 388.586 286.187 419.562 268.299C432.746 260.672 440.842 246.603 440.842 231.371V180.672C432.629 199.232 418.762 215.445 399.882 226.325H399.776C399.456 226.539 399.029 226.752 398.709 226.965C398.282 227.179 397.856 227.499 397.205 227.819C388.682 232.832 361.269 248.512 358.709 250.005V233.163C358.709 217.909 350.624 203.829 337.397 196.224C322.549 187.669 307.562 179.04 292.565 170.325C272.842 158.912 252.896 147.499 233.162 136.085C217.002 126.709 200.949 117.451 184.992 108.245C178.41 104.448 171.072 102.549 163.744 102.549C156.384 102.549 149.024 104.459 142.421 108.267ZM227.541 399.541C221.258 395.936 212.384 390.816 205.045 386.581C198.464 382.795 194.442 375.787 194.442 368.181V203.979C194.442 187.552 212.202 177.28 226.421 185.483C240.682 193.728 255.157 202.069 269.525 210.325C282.176 217.675 294.677 224.971 306.965 232.043C313.578 235.851 317.642 242.869 317.642 250.507V261.397C317.642 269.024 313.61 276.053 307.008 279.861C302.154 282.656 296.48 285.92 290.442 289.365C265.685 303.765 235.509 321.152 235.509 321.152V394.912C235.509 398.027 232.96 400.267 230.186 400.267C229.301 400.267 228.394 400.043 227.541 399.541Z" fill="url(#paint2_linear_3709_321296)"/>
<path d="M142.421 108.266C126.197 117.632 106.89 128.768 92.4689 137.045C79.3489 144.725 71.2422 158.698 71.2422 173.952V224.405C71.6689 223.445 72.2022 222.378 72.6289 221.418C74.1222 218.218 76.0422 215.445 77.5249 212.565C85.8555 199.125 97.4822 187.605 112.202 178.965H112.309C112.629 178.752 112.949 178.538 113.269 178.325C119.136 174.912 150.378 156.885 153.365 155.178V385.418C153.365 400.65 161.44 414.698 174.624 422.325C194.304 433.717 215.05 445.674 234.762 457.045C247.882 464.725 263.989 464.725 277.205 457.045C300.042 443.818 330.965 426.005 359.765 409.365C363.829 407.125 367.776 404.885 371.616 402.645C367.562 404.885 363.509 406.912 359.242 408.512C333.216 418.858 303.029 418.112 276.576 404.149V350.805C276.576 350.805 291.936 341.952 313.578 329.472C344.576 311.573 388.586 286.186 419.562 268.298C432.746 260.672 440.842 246.602 440.842 231.37V180.672C432.629 199.232 418.762 215.445 399.882 226.325H399.776C399.456 226.538 399.029 226.752 398.709 226.965C398.282 227.178 397.856 227.498 397.205 227.818C388.682 232.832 361.269 248.512 358.709 250.005V233.162C358.709 217.909 350.624 203.829 337.397 196.224C322.549 187.669 307.562 179.04 292.565 170.325C272.842 158.912 252.896 147.498 233.162 136.085C217.002 126.709 200.949 117.45 184.992 108.245C178.41 104.448 171.072 102.549 163.744 102.549C156.384 102.549 149.024 104.458 142.421 108.266ZM227.541 399.541C221.258 395.936 212.384 390.816 205.045 386.581C198.464 382.794 194.442 375.786 194.442 368.181V203.978C194.442 187.552 212.202 177.28 226.421 185.482C240.682 193.728 255.157 202.069 269.525 210.325C282.176 217.674 294.677 224.97 306.965 232.042C313.578 235.85 317.642 242.869 317.642 250.506V261.397C317.642 269.024 313.61 276.053 307.008 279.861C302.154 282.656 296.48 285.92 290.442 289.365C265.685 303.765 235.509 321.152 235.509 321.152V394.912C235.509 398.026 232.96 400.266 230.186 400.266C229.301 400.266 228.394 400.042 227.541 399.541Z" fill="url(#paint3_linear_3709_321296)"/>
<path d="M142.289 108.829C126.065 118.194 106.758 129.33 92.337 137.607C79.217 145.287 71.1104 159.261 71.1104 174.514V224.967C71.537 224.007 72.0704 222.941 72.497 221.981C73.9904 218.781 75.9104 216.007 77.393 213.127C85.7237 199.687 97.3504 188.167 112.07 179.527H112.177C112.497 179.314 112.817 179.101 113.137 178.887C119.004 175.474 150.246 157.447 153.233 155.741V385.981C153.233 401.213 161.308 415.261 174.492 422.887C194.172 434.279 214.918 446.237 234.63 457.607C247.75 465.287 263.857 465.287 277.073 457.607C299.91 444.381 330.833 426.567 359.633 409.927C363.697 407.687 367.644 405.447 371.484 403.207C367.43 405.447 363.377 407.474 359.11 409.074C333.084 419.421 302.897 418.674 276.444 404.711V351.945C276.444 351.587 276.625 351.263 276.935 351.084C279.717 349.481 294.062 341.212 313.446 330.034C344.444 312.135 388.454 286.749 419.43 268.861C432.614 261.234 440.71 247.165 440.71 231.933V181.234C432.497 199.794 418.63 216.007 399.75 226.887H399.644C399.324 227.101 398.897 227.314 398.577 227.527C398.15 227.741 397.724 228.061 397.073 228.381C388.55 233.394 361.137 249.074 358.577 250.567V233.725C358.577 218.471 350.492 204.391 337.265 196.786C322.417 188.231 307.43 179.602 292.433 170.887C272.71 159.474 252.764 148.061 233.03 136.647C216.87 127.271 200.817 118.013 184.86 108.807C178.278 105.01 170.94 103.111 163.612 103.111C156.252 103.111 148.892 105.021 142.289 108.829ZM227.409 400.103C221.126 396.498 212.252 391.378 204.913 387.143C198.332 383.357 194.31 376.349 194.31 368.743V204.541C194.31 188.114 212.07 177.842 226.289 186.045C240.55 194.29 255.025 202.631 269.393 210.887C282.044 218.237 294.545 225.533 306.833 232.605C313.446 236.413 317.51 243.431 317.51 251.069V261.959C317.51 269.586 313.478 276.615 306.876 280.423C302.022 283.218 296.348 286.482 290.31 289.927C267.386 303.261 239.817 319.155 235.859 321.436C235.549 321.615 235.377 321.934 235.377 322.292V395.474C235.377 398.589 232.828 400.829 230.054 400.829C229.169 400.829 228.262 400.605 227.409 400.103Z" fill="url(#paint4_linear_3709_321296)"/>
<path d="M77.393 213.156C85.7237 199.716 97.3504 188.196 112.07 179.556H112.177V386.916L92.4437 375.609C79.217 367.929 71.1104 353.849 71.1104 338.596V224.996C71.537 224.036 72.0704 222.969 72.497 222.009C73.9904 218.809 75.9104 216.036 77.393 213.156Z" fill="url(#paint5_linear_3709_321296)"/>
<path d="M337.493 369.494C309.866 385.28 285.76 399.254 277.333 404.171C303.786 418.134 333.973 418.88 360 408.534C364.266 406.934 368.32 404.907 372.373 402.667C390.826 392 407.786 382.187 420.256 375.04C433.493 367.36 441.6 353.28 441.6 338.027V309.334C425.92 318.4 378.026 346.027 337.493 369.494Z" fill="url(#paint6_linear_3709_321296)"/>
<path d="M209.777 69.8525C215.014 66.8658 225.137 61.0098 234.641 55.4525C241.254 51.6658 248.582 49.7779 255.921 49.7779C263.249 49.7779 270.588 51.6658 277.201 55.4525C294.588 65.5858 316.561 78.1725 338.641 90.8658C369.041 108.466 399.761 126.173 419.377 137.586C432.614 145.159 440.721 159.239 440.721 174.493V181.213C432.508 199.773 418.641 215.986 399.761 226.866H399.654V191.815C399.654 184.199 395.633 177.17 389.03 173.362C364.806 159.357 340.145 145.191 315.494 130.866C279.964 110.386 244.348 89.7992 209.777 69.8525Z" fill="url(#paint7_linear_3709_321296)"/>
<defs>
<linearGradient id="paint0_linear_3709_321296" x1="221.333" y1="216" x2="302.317" y2="294.791" gradientUnits="userSpaceOnUse">
<stop stop-color="#3CCBF4"/>
<stop offset="1" stop-color="#2892DF"/>
</linearGradient>
<linearGradient id="paint1_linear_3709_321296" x1="110.221" y1="63.111" x2="420.039" y2="383.545" gradientUnits="userSpaceOnUse">
<stop stop-color="#3CCBF4"/>
<stop offset="1" stop-color="#2892DF"/>
</linearGradient>
<linearGradient id="paint2_linear_3709_321296" x1="440" y1="228" x2="396" y2="232" gradientUnits="userSpaceOnUse">
<stop stop-color="white" stop-opacity="0.4"/>
<stop offset="1" stop-color="white" stop-opacity="0"/>
</linearGradient>
<linearGradient id="paint3_linear_3709_321296" x1="304.888" y1="440.889" x2="282.666" y2="407.111" gradientUnits="userSpaceOnUse">
<stop stop-color="white" stop-opacity="0.4"/>
<stop offset="1" stop-color="white" stop-opacity="0"/>
</linearGradient>
<linearGradient id="paint4_linear_3709_321296" x1="71.1104" y1="182.122" x2="111.037" y2="180.138" gradientUnits="userSpaceOnUse">
<stop stop-color="white" stop-opacity="0"/>
<stop offset="0.505208" stop-color="white" stop-opacity="0.4"/>
<stop offset="1" stop-color="white" stop-opacity="0"/>
</linearGradient>
<linearGradient id="paint5_linear_3709_321296" x1="92.4437" y1="165.333" x2="92.4437" y2="387.556" gradientUnits="userSpaceOnUse">
<stop stop-opacity="0.3"/>
<stop offset="1" stop-color="#07A2FC" stop-opacity="0"/>
<stop offset="1" stop-opacity="0"/>
</linearGradient>
<linearGradient id="paint6_linear_3709_321296" x1="310.222" y1="416" x2="471.111" y2="319.886" gradientUnits="userSpaceOnUse">
<stop stop-opacity="0.3"/>
<stop offset="1" stop-color="#07A2FC" stop-opacity="0"/>
<stop offset="1" stop-opacity="0"/>
</linearGradient>
<linearGradient id="paint7_linear_3709_321296" x1="430.222" y1="195.556" x2="214.222" y2="48" gradientUnits="userSpaceOnUse">
<stop stop-opacity="0.3"/>
<stop offset="1" stop-color="#07A2FC" stop-opacity="0"/>
<stop offset="1" stop-color="#07A2FC" stop-opacity="0"/>
</linearGradient>
</defs>
</svg>
